<svg width="30" height="30" viewBox="0 0 30 30" fill="none" xmlns="http://www.w3.org/2000/svg">
<path d="M28.3441 29.9999C29.2584 29.9999 29.9998 29.2586 29.9998 28.3442V1.65573C29.9998 0.741206 29.2584 0 28.3441 0H1.65573C0.741089 0 0 0.741206 0 1.65573V28.3442C0 29.2586 0.741089 29.9999 1.65573 29.9999H28.3441Z" fill="#395185"/>
<path d="M20.6994 30V18.3825H24.599L25.1828 13.8549H20.6994V10.9642C20.6994 9.65333 21.0635 8.76002 22.9433 8.76002L25.3408 8.75896V4.70957C24.9259 4.65438 23.5028 4.5311 21.8472 4.5311C18.3904 4.5311 16.024 6.64105 16.024 10.5159V13.8549H12.1144V18.3825H16.024V30H20.6994Z" fill="white"/>
</svg>
